<svg width="1536" height="864" viewBox="0 0 1536 864" fill="none" xmlns="http://www.w3.org/2000/svg">
  <defs>
    <linearGradient id="gold" x1="212" y1="136" x2="1310" y2="730" gradientUnits="userSpaceOnUse">
      <stop stop-color="#fff2a8"/>
      <stop offset="0.2" stop-color="#ffbe37"/>
      <stop offset="0.52" stop-color="#a8620e"/>
      <stop offset="0.76" stop-color="#ffe999"/>
      <stop offset="1" stop-color="#c87912"/>
    </linearGradient>
    <radialGradient id="glow" cx="50%" cy="42%" r="62%">
      <stop stop-color="#f6b92d" stop-opacity="0.26"/>
      <stop offset="0.42" stop-color="#f6b92d" stop-opacity="0.08"/>
      <stop offset="1" stop-color="#000" stop-opacity="0"/>
    </radialGradient>
    <filter id="softGold" x="0" y="0" width="1536" height="864" filterUnits="userSpaceOnUse" color-interpolation-filters="sRGB">
      <feGaussianBlur stdDeviation="3" result="blur"/>
      <feColorMatrix in="blur" type="matrix" values="1 0 0 0 1 0 1 0 0 .63 0 0 1 0 .08 0 0 0 .62 0"/>
      <feBlend in="SourceGraphic"/>
    </filter>
  </defs>
  <rect width="1536" height="864" fill="#030200"/>
  <rect width="1536" height="864" fill="url(#glow)"/>
  <path d="M-90 464C100 423 238 229 427 200C588 176 659 294 812 271C1027 238 1135 76 1616 151" stroke="url(#gold)" stroke-width="5" opacity="0.85" filter="url(#softGold)"/>
  <path d="M-62 488C128 447 266 253 455 224C616 200 687 318 840 295C1055 262 1163 100 1644 175" stroke="url(#gold)" stroke-width="1.6" opacity="0.55"/>
  <path d="M1008 724C1190 706 1273 591 1429 556C1514 537 1584 545 1644 570" stroke="url(#gold)" stroke-width="6" opacity="0.9" filter="url(#softGold)"/>
  <path d="M996 752C1178 734 1261 619 1417 584C1502 565 1572 573 1632 598" stroke="url(#gold)" stroke-width="1.5" opacity="0.58"/>
  <circle cx="318" cy="324" r="8" fill="#fff2a8" filter="url(#softGold)"/>
  <circle cx="405" cy="283" r="6" fill="#fff2a8" filter="url(#softGold)"/>
  <circle cx="927" cy="236" r="11" fill="#fff2a8" filter="url(#softGold)"/>
  <circle cx="888" cy="436" r="7" fill="#fff2a8" filter="url(#softGold)"/>
  <g opacity="0.4">
    <circle cx="227" cy="421" r="2" fill="#d88916"/>
    <circle cx="255" cy="469" r="2" fill="#d88916"/>
    <circle cx="1075" cy="529" r="2" fill="#d88916"/>
    <circle cx="1174" cy="648" r="2" fill="#d88916"/>
    <circle cx="1334" cy="642" r="2" fill="#d88916"/>
    <circle cx="1398" cy="577" r="2" fill="#d88916"/>
  </g>
  <circle cx="768" cy="270" r="150" stroke="url(#gold)" stroke-width="7" filter="url(#softGold)"/>
  <circle cx="768" cy="270" r="132" stroke="url(#gold)" stroke-width="2" opacity="0.72"/>
  <path d="M692 197V324" stroke="url(#gold)" stroke-width="7" stroke-linecap="round"/>
  <path d="M692 260H760" stroke="url(#gold)" stroke-width="7" stroke-linecap="round"/>
  <path d="M760 197V324" stroke="url(#gold)" stroke-width="7" stroke-linecap="round"/>
  <path d="M760 324L795 200L832 324L866 200V324" stroke="url(#gold)" stroke-width="7" stroke-linecap="round" stroke-linejoin="round"/>
  <text x="768" y="594" text-anchor="middle" fill="url(#gold)" font-family="Georgia, serif" font-size="96" font-weight="700" letter-spacing="1">Hellen Martins</text>
  <text x="768" y="650" text-anchor="middle" fill="#f1b43b" font-family="Georgia, serif" font-size="31" letter-spacing="18">DESIGNER DE SOBRANCELHAS</text>
  <path d="M512 708H710C728 708 732 690 748 702C760 712 774 712 786 702C802 690 806 708 824 708H1024" stroke="url(#gold)" stroke-width="2" opacity="0.7"/>
</svg>
