<svg width="512" height="512" viewBox="0 0 512 512" fill="none" xmlns="http://www.w3.org/2000/svg">
  <defs>
    <radialGradient id="goldGlow" cx="50%" cy="36%" r="62%">
      <stop offset="0" stop-color="#fff2b0"/>
      <stop offset="0.25" stop-color="#ffc64f"/>
      <stop offset="0.58" stop-color="#b77419"/>
      <stop offset="1" stop-color="#4b2706" stop-opacity="0"/>
    </radialGradient>
    <linearGradient id="goldLine" x1="106" y1="112" x2="404" y2="402" gradientUnits="userSpaceOnUse">
      <stop stop-color="#fff4b8"/>
      <stop offset="0.22" stop-color="#f6b92d"/>
      <stop offset="0.55" stop-color="#d88916"/>
      <stop offset="0.82" stop-color="#fff0a6"/>
      <stop offset="1" stop-color="#a86410"/>
    </linearGradient>
    <filter id="logoGlow" x="48" y="48" width="416" height="416" filterUnits="userSpaceOnUse" color-interpolation-filters="sRGB">
      <feGaussianBlur stdDeviation="7" result="blur"/>
      <feColorMatrix in="blur" type="matrix" values="1 0 0 0 1 0 1 0 0 .67 0 0 1 0 .10 0 0 0 .72 0"/>
      <feBlend in="SourceGraphic"/>
    </filter>
  </defs>
  <rect width="512" height="512" rx="256" fill="#040301"/>
  <circle cx="256" cy="256" r="230" fill="url(#goldGlow)" opacity="0.2"/>
  <circle cx="256" cy="228" r="150" stroke="url(#goldLine)" stroke-width="7" filter="url(#logoGlow)"/>
  <circle cx="256" cy="228" r="132" stroke="url(#goldLine)" stroke-width="2.4" opacity="0.78"/>
  <path d="M178 154V285" stroke="url(#goldLine)" stroke-width="7" stroke-linecap="round" filter="url(#logoGlow)"/>
  <path d="M178 220H249" stroke="url(#goldLine)" stroke-width="7" stroke-linecap="round"/>
  <path d="M249 154V285" stroke="url(#goldLine)" stroke-width="7" stroke-linecap="round"/>
  <path d="M249 285L284 157L322 285L358 157V285" stroke="url(#goldLine)" stroke-width="7" stroke-linecap="round" stroke-linejoin="round"/>
  <path d="M88 336C146 289 192 311 223 304C256 296 257 263 293 286C324 306 316 343 357 330C389 321 403 285 445 310" stroke="url(#goldLine)" stroke-width="5" stroke-linecap="round" opacity="0.78"/>
  <circle cx="350" cy="125" r="10" fill="#fff4b8" filter="url(#logoGlow)"/>
  <circle cx="334" cy="278" r="8" fill="#fff4b8" filter="url(#logoGlow)"/>
  <text x="256" y="398" text-anchor="middle" fill="url(#goldLine)" font-family="Georgia, serif" font-size="39" font-style="italic" letter-spacing="1.2">Hellen Martins</text>
  <text x="256" y="436" text-anchor="middle" fill="#f2b33b" font-family="Georgia, serif" font-size="17" letter-spacing="6">DESIGNER DE SOBRANCELHAS</text>
</svg>
